<?xml version="1.0" encoding="UTF-8" standalone="no"?>
<svg xmlns:cc="http://creativecommons.org/ns#" xmlns:dc="http://purl.org/dc/elements/1.1/"
    xmlns:inkscape="http://www.inkscape.org/namespaces/inkscape"
    xmlns:rdf="http://www.w3.org/1999/02/22-rdf-syntax-ns#"
    xmlns:sodipodi="http://sodipodi.sourceforge.net/DTD/sodipodi-0.dtd" height="6666.6665" id="svg2"
    version="1.1" viewBox="0 0 6666.6665 6666.6665" width="6666.6665"
    xmlns="http://www.w3.org/2000/svg" sodipodi:docname="Chia address widget.eps"
    xml:space="preserve"><metadata
     id="metadata8"><rdf:RDF><cc:Work
         rdf:about=""><dc:format>image/svg+xml</dc:format><dc:type
    rdf:resource="http://purl.org/dc/dcmitype/StillImage" /></cc:Work></rdf:RDF></metadata>
    <defs id="defs6"><clipPath
       clipPathUnits="userSpaceOnUse"
       id="clipPath20"><path
         d="M 40310,0 H 9690 C 4338.36,0 0,4338.4 0,9690 v 30620 c 0,5351.6 4338.36,9690 9690,9690 h 30620 c 5351.6,0 9690,-4338.4 9690,-9690 V 9690 C 50000,4338.4 45661.6,0 40310,0 Z"
         id="path18" /></clipPath>
        <linearGradient gradientTransform="matrix(44057.6,-44898,-44898,-44057.6,3005.19,47414.3)"
            gradientUnits="userSpaceOnUse" id="linearGradient26" spreadMethod="pad" x1="0" x2="1"
            y1="0" y2="0"><stop
         style="stop-opacity:1;stop-color:#3fb14f"
         id="stop22"
         offset="0" />
            <stop style="stop-opacity:1;stop-color:#299540" id="stop24" offset="1" /></linearGradient></defs>
    <sodipodi:namedview bordercolor="#666666" borderopacity="1" gridtolerance="10"
        guidetolerance="10" id="namedview4" objecttolerance="10" pagecolor="#ffffff"
        inkscape:pageopacity="0" inkscape:pageshadow="2" inkscape:window-height="480"
        inkscape:window-width="640" />
    <g id="g10" transform="matrix(1.3333333,0,0,-1.3333333,0,6666.6667)" inkscape:groupmode="layer"
        inkscape:label="ink_ext_XXXXXX"><g
       id="g12"
       transform="scale(0.1)"><g
         id="g14"><g
           clip-path="url(#clipPath20)"
           id="g16"><path
             style="fill:url(#linearGradient26);fill-opacity:1;fill-rule:nonzero;stroke:none"
             d="M 40310,0 H 9690 C 4338.36,0 0,4338.4 0,9690 v 30620 c 0,5351.6 4338.36,9690 9690,9690 h 30620 c 5351.6,0 9690,-4338.4 9690,-9690 V 9690 C 50000,4338.4 45661.6,0 40310,0"
             id="path28" /></g></g><path
        style="fill:#ffffff;fill-opacity:1;fill-rule:nonzero;stroke:none"
        d="m 15551.2,36902.5 c -496.7,0 -899.3,-402.7 -899.3,-899.4 v 0 c 0,-496.6 402.6,-899.3 899.3,-899.3 h 21716.6 c 496.7,0 899.3,402.7 899.3,899.3 v 0 c 0,496.7 -402.6,899.4 -899.3,899.4 H 15551.2"
        id="path30" /><path style="fill:#ffffff;fill-opacity:1;fill-rule:nonzero;stroke:none"
        d="m 22635.9,27157.7 c 148.2,-312 466,-527.7 834.3,-527.7 510,0 923.4,413.4 923.4,923.4 0,509.9 -413.4,923.3 -923.4,923.3 -383,0 -711.5,-233.2 -851.3,-565.3 H 9520.04 c -103.32,0 -187.08,-83.7 -187.08,-187.1 v -379.6 c 0,-103.3 83.76,-187 187.08,-187 H 22635.9"
        id="path32" /><path style="fill:#ffffff;fill-opacity:1;fill-rule:nonzero;stroke:none"
        d="m 20699.8,19808.5 c 139.9,-332.1 468.4,-565.3 851.4,-565.3 509.9,0 923.3,413.4 923.3,923.4 0,509.9 -413.4,923.3 -923.3,923.3 -368.4,0 -686.2,-215.7 -834.4,-527.6 H 8679.65 c -103.31,0 -187.08,-83.8 -187.08,-187.1 v -379.6 c 0,-103.3 83.77,-187.1 187.08,-187.1 H 20699.8"
        id="path34" /><path style="fill:#ffffff;fill-opacity:1;fill-rule:nonzero;stroke:none"
        d="m 14312.1,14871.4 c 510,0 923.4,413.5 923.4,923.4 0,510 -413.4,923.4 -923.4,923.4 -368.3,0 -686.2,-215.8 -834.4,-527.7 h -2578.4 c -103.4,0 -187.1,-83.7 -187.1,-187.1 v -379.5 c 0,-103.4 83.7,-187.1 187.1,-187.1 h 2561.5 c 139.8,-332.2 468.3,-565.4 851.3,-565.4"
        id="path36" /><path style="fill:#ffffff;fill-opacity:1;fill-rule:nonzero;stroke:none"
        d="m 36512.9,20911.7 c 0,0 -144.7,-3399.8 -4822.5,-3399.8 -4677.8,0 -9283.2,6317.4 -9283.2,6317.4 11863.2,7257.8 14105.7,-1157.4 14105.7,-1157.4 -4255.8,1844.6 -7703.9,880.1 -7703.9,880.1 3520.4,48.2 7703.9,-2640.3 7703.9,-2640.3 z m 3313.9,-574.4 v 8930.6 c 0,2404.4 -1949.2,4353.6 -4353.6,4353.6 H 15487.7 c -1297.7,0 -2347.7,1060.4 -2330.8,2362 16.6,1281.1 1084.4,2300.1 2365.6,2300.1 h 23162.9 c 422.9,0 783.1,328.9 798.1,751.5 15.8,443.7 -339.2,808.3 -779.4,808.3 h -23105 c -2181.9,0 -3950.8,-1768.8 -3950.8,-3950.8 V 32810.8 H 8692.69 c -399.13,0 -722.69,-323.5 -722.69,-722.7 V 31341 h 3678.3 865.4 c 148.2,311.9 466.1,527.6 834.4,527.6 509.9,0 923.3,-413.4 923.3,-923.3 0,-510 -413.4,-923.4 -923.3,-923.4 -383,0 -711.5,233.2 -851.3,565.4 H 11648.3 7970 v -784.9 c 0,-399.1 323.56,-722.7 722.69,-722.7 H 11648.3 V 28515 h 10635.2 c 285.1,352.4 717.5,565.3 1186.7,565.3 842,0 1526.9,-685 1526.9,-1526.9 0,-842 -684.9,-1526.9 -1526.9,-1526.9 -294.3,0 -580.3,84.1 -826.9,243.2 -122.9,79.3 -233,175.1 -327.6,284.4 H 11648.3 v -564.8 h -1420 c -399.15,0 -722.71,-323.5 -722.71,-722.6 v -747.2 h 2142.71 3051.3 c 148.2,311.9 466.1,527.6 834.4,527.6 509.9,0 923.3,-413.3 923.3,-923.3 0,-510 -413.4,-923.4 -923.3,-923.4 -383,0 -711.5,233.2 -851.3,565.4 H 11648.3 9505.59 v -784.9 c 0,-399.1 323.56,-722.6 722.71,-722.6 h 1420 v -1092.4 h 8748.3 c 94.6,109.3 204.8,205.1 327.6,284.4 246.7,159.1 532.6,243.2 827,243.2 841.9,0 1526.9,-685 1526.9,-1526.9 0,-842 -685,-1526.9 -1526.9,-1526.9 -469.3,0 -901.7,212.8 -1186.8,565.3 h -8716.1 v -2410.9 h 1509.3 c 94.6,109.3 204.7,205.1 327.6,284.4 246.6,159.1 532.6,243.2 826.9,243.2 841.9,0 1526.9,-685 1526.9,-1526.9 0,-841.9 -685,-1526.9 -1526.9,-1526.9 -469.3,0 -901.7,212.9 -1186.7,565.3 h -1477.1 v -725.8 c 0,-337.3 42.4,-664.7 121.9,-977.3 h 6212.5 l 2535.5,2298.9 c -24.4,76.8 -37.6,158.6 -37.6,243.5 0,443.8 359.8,803.7 803.6,803.7 443.9,0 803.7,-359.9 803.7,-803.7 0,-443.9 -359.8,-803.7 -803.7,-803.7 -123.2,0 -240,27.9 -344.4,77.5 l -2709.9,-2457 h -6236 c 618.2,-1375.1 1999.8,-2332.7 3605.2,-2332.7 h 19608.4 c 2551.2,0 4619.3,2068.1 4619.3,4619.3 v 4240.3 c 1175.3,-702.9 2203.2,-1601.7 2203.2,-1601.7 -527.4,1490.4 -1663.2,2505.3 -2203.2,2922.8"
        id="path38" /><path style="fill:#ffffff;fill-opacity:1;fill-rule:nonzero;stroke:none"
        d="m 21617.1,15674.8 c 0,-183.4 -148.6,-332 -331.9,-332 -183.4,0 -332,148.6 -332,332 0,183.3 148.6,331.9 332,331.9 183.3,0 331.9,-148.6 331.9,-331.9"
        id="path40" /><path style="fill:#ffffff;fill-opacity:1;fill-rule:nonzero;stroke:none"
        d="m 15895.3,24124.8 c 0,-183.3 -148.7,-331.9 -332,-331.9 -183.3,0 -332,148.6 -332,331.9 0,183.4 148.7,332 332,332 183.3,0 332,-148.6 332,-332"
        id="path42" /><path style="fill:#ffffff;fill-opacity:1;fill-rule:nonzero;stroke:none"
        d="m 13686.2,30957.3 c 0,-183.4 -148.6,-332 -332,-332 -183.3,0 -331.9,148.6 -331.9,332 0,183.3 148.6,331.9 331.9,331.9 183.4,0 332,-148.6 332,-331.9"
        id="path44" /></g></g></svg>
